<?xml version="1.0" encoding="utf-8"?>
<svg version="1.1" xmlns:xlink="http://www.w3.org/1999/xlink" width="45px" height="45px" xmlns="http://www.w3.org/2000/svg">
  <defs>
    <filter x="-10px" y="-10px" width="45px" height="45px" filterUnits="userSpaceOnUse" id="filter77">
      <feOffset dx="0" dy="0" in="SourceAlpha" result="shadowOffsetInner" />
      <feGaussianBlur stdDeviation="5" in="shadowOffsetInner" result="shadowGaussian" />
      <feComposite in2="shadowGaussian" operator="atop" in="SourceAlpha" result="shadowComposite" />
      <feColorMatrix type="matrix" values="0 0 0 0 0.282352941176471  0 0 0 0 0.564705882352941  0 0 0 0 0.968627450980392  0 0 0 1 0  " in="shadowComposite" />
    </filter>
    <g id="widget78">
      <path d="M 12.5 0  C 19.5 0  25 5.5  25 12.5  C 25 19.5  19.5 25  12.5 25  C 5.5 25  0 19.5  0 12.5  C 0 5.5  5.5 0  12.5 0  Z " fill-rule="nonzero" fill="#4890f7" stroke="none" />
      <path d="M 12.5 0.5  C 19.22 0.5  24.5 5.78  24.5 12.5  C 24.5 19.22  19.22 24.5  12.5 24.5  C 5.78 24.5  0.5 19.22  0.5 12.5  C 0.5 5.78  5.78 0.5  12.5 0.5  Z " stroke-width="1" stroke="#4890f7" fill="none" />
    </g>
  </defs>
  <g transform="matrix(1 0 0 1 10 10 )">
    <use xlink:href="#widget78" filter="url(#filter77)" />
    <use xlink:href="#widget78" />
  </g>
</svg>