<?xml version="1.0" encoding="utf-8"?>
<svg version="1.1" xmlns:xlink="http://www.w3.org/1999/xlink" width="15px" height="15px" xmlns="http://www.w3.org/2000/svg">
  <g transform="matrix(1 0 0 1 -470 -110 )">
    <path d="M 14.5082661290323 14.5108064516129  C 15.1633064516129 13.8590322580645  15.1633064516129 12.7913709677419  14.5100806451613 12.1381451612903  L 12.7848387096774 10.4129032258065  C 12.4382722698186 10.0668774170413  11.957490324201 9.8900822905563  11.469314516129 9.92915322580645  C 13.0918548387097 7.58225806451613  12.8574193548387 4.33826612903226  10.7678225806452 2.2483064516129  C 8.41548387096774 -0.10475806451613  4.60064516129033 -0.10475806451613  2.24758064516129 2.2483064516129  C -0.104758064516127 4.60137096774194  -0.104758064516127 8.41657258064516  2.24758064516129 10.7696370967742  C 4.33717741935484 12.8595967741935  7.57862903225807 13.0922177419355  9.92697580645162 11.4696774193548  C 9.89068548387097 11.9414516129032  10.0525403225806 12.4270161290323  10.4107258064516 12.7852016129032  L 12.1359677419355 14.5108064516129  C 12.7891935483871 15.1625806451613  13.8564919354839 15.1625806451613  14.5082661290323 14.5108064516129  Z M 10.0681451612903 2.95016129032258  C 12.0336290322581 4.9145564516129  12.0336290322581 8.10229838709678  10.0681451612903 10.0681451612903  C 8.10229838709678 12.0339919354839  4.91673387096774 12.0339919354839  2.95161290322581 10.0681451612903  C 0.985766129032258 8.10229838709678  0.985766129032258 4.91600806451613  2.95161290322581 2.95016129032258  C 4.91673387096774 0.984314516129032  8.10229838709678 0.984314516129032  10.0681451612903 2.95016129032258  Z " fill-rule="nonzero" fill="#ffffff" stroke="none" transform="matrix(1 0 0 1 470 110 )" />
  </g>
</svg>