<?xml version="1.0" encoding="utf-8"?>
<svg version="1.1" xmlns:xlink="http://www.w3.org/1999/xlink" width="25px" height="22px" xmlns="http://www.w3.org/2000/svg">
  <g transform="matrix(1 0 0 1 -17 -16 )">
    <path d="M 18.9031427556818 19.6763822115385  C 17.0665394176136 21.1224459134615  14.88037109375 21.8881710737179  12.5804554332386 21.8881710737179  C 9.78948419744318 21.8881710737179  7.16497247869318 20.756109775641  5.19242720170454 18.7040765224359  C 3.21710759943182 16.6465344551282  2.12679776278409 13.9114082532051  2.12679776278409 11  L 2.12679776278409 10.5372596153846  L 0.229159268465909 10.5372596153846  C 0.134832208806818 10.5372596153846  0.0599254261363636 10.4573818108974  0.0599254261363636 10.35546875  C 0.0599254261363636 10.3086438301282  0.0710227272727273 10.2810997596154  0.0932173295454545 10.2452924679487  L 1.50257457386364 7.71674679487179  L 2.92025479403409 5.16892027243589  C 2.947998046875 5.11934094551282  2.99793590198864 5.08904246794872  3.05064808238636 5.08904246794872  C 3.10890891335227 5.08904246794872  3.15329811789773 5.11658653846154  3.18104137073864 5.16616586538461  L 4.60149591619318 7.71674679487179  L 6.00530450994318 10.2508012820513  C 6.0302734375 10.2921173878205  6.04137073863636 10.3334334935897  6.04137073863636 10.3664863782051  C 6.04137073863636 10.4656450320513  5.96368963068182 10.5482772435897  5.87213689630682 10.5482772435897  L 3.78584428267045 10.5482772435897  L 3.78584428267045 11.0110176282051  C 3.78584428267045 16.0460737179487  7.72816051136364 20.1391225961538  12.5749067826705 20.1391225961538  C 14.483642578125 20.1391225961538  16.3091486150568 19.505608974359  17.8544477982955 18.3046875  L 17.8655450994318 18.2964242788462  L 17.8766424005682 18.285406650641  C 18.0320046164773 18.1311598557692  18.2317560369318 18.0457732371795  18.4398304332386 18.0457732371795  C 18.9003684303977 18.0457732371795  19.27490234375 18.4424078525641  19.2970969460227 18.9464643429487  C 19.2970969460227 19.1668169070513  19.2083185369318 19.3899238782051  19.0557306463068 19.5524338942308  L 19.0501819957386 19.5524338942308  L 18.9835981889205 19.6102764423077  C 18.9780495383523 19.6157852564103  18.9725008877841 19.6185396634615  18.9669522372159 19.6240484775641  L 18.9641779119318 19.6268028846154  C 18.9475319602273 19.6378205128205  18.9253373579545 19.6543469551282  18.9031427556818 19.6763822115385  Z M 22.0908425071023 15.0765224358974  C 22.0630992542614 15.1233473557692  22.0159357244318 15.1536458333333  21.96044921875 15.1536458333333  C 21.9105113636364 15.1536458333333  21.8550248579545 15.1205929487179  21.8300559303977 15.0765224358974  L 20.4234730113636 12.5286959134615  L 19.0196644176136 10.0029046474359  C 18.9946954900568 9.96158854166667  18.9835981889205 9.92027243589744  18.9835981889205 9.88721955128205  C 18.9835981889205 9.7880608974359  19.061279296875 9.70542868589744  19.15283203125 9.70542868589744  L 21.2668678977273 9.70542868589744  L 21.2224786931818 9.43274238782051  C 20.4983797940341 5.04221754807692  16.8556906960227 1.85812299679487  12.5582608309659 1.85812299679487  C 10.9214089133523 1.85812299679487  9.326171875 2.3291266025641  7.94455788352272 3.22155448717949  L 7.93623490767045 3.22706330128205  L 7.92791193181818 3.23257211538462  C 7.78642134232954 3.3427483974359  7.61996182528409 3.40059094551282  7.45072798295454 3.40059094551282  C 6.98464133522727 3.40059094551282  6.61843039772727 3.01497395833333  6.61843039772727 2.52193509615385  C 6.61843039772727 2.18589743589744  6.77934126420454 1.89668469551282  7.05122514204545 1.74794671474359  L 7.05677379261363 1.74519230769231  L 7.06509676846591 1.73968349358974  C 8.70472301136363 0.676482371794872  10.6051358309659 0.114583333333334  12.5582608309659 0.114583333333334  C 15.0967684659091 0.114583333333334  17.5464976917614 1.07311698717949  19.4524591619318 2.81665665064103  C 21.3445490056818 4.54642427884615  22.5763494318182 6.92072315705128  22.9175914417614 9.50435697115385  L 22.9453346946023 9.70818309294872  L 24.8013583096591 9.70818309294872  C 24.8457475142045 9.70818309294872  24.8845880681818 9.72470953525641  24.9095569957386 9.75500801282051  C 24.9345259232955 9.78255208333333  24.9456232244318 9.82111378205128  24.9400745738636 9.86242988782051  L 24.9373002485795 9.87620192307692  L 24.9373002485795 9.88997395833333  C 24.9373002485795 9.92578125  24.9262029474432 9.96434294871795  24.9040083451705 10.0001502403846  L 23.5085227272727 12.5286959134615  L 22.0908425071023 15.0765224358974  Z " fill-rule="nonzero" fill="#0dc6b9" stroke="none" transform="matrix(1 0 0 1 17 16 )" />
  </g>
</svg>