<?xml version="1.0" encoding="utf-8"?>
<svg version="1.1" xmlns:xlink="http://www.w3.org/1999/xlink" width="30px" height="30px" xmlns="http://www.w3.org/2000/svg">
  <g transform="matrix(1 0 0 1 -9 -28 )">
    <path d="M 24 28  C 32.4 28  39 34.6  39 43  C 39 51.4  32.4 58  24 58  C 15.6 58  9 51.4  9 43  C 9 34.6  15.6 28  24 28  Z " fill-rule="nonzero" fill="#efefef" stroke="none" />
    <path d="M 24 28.5  C 32.12 28.5  38.5 34.88  38.5 43  C 38.5 51.12  32.12 57.5  24 57.5  C 15.88 57.5  9.5 51.12  9.5 43  C 9.5 34.88  15.88 28.5  24 28.5  Z " stroke-width="1" stroke="#efefef" fill="none" />
  </g>
</svg>