<?xml version="1.0" encoding="utf-8"?>
<svg version="1.1" xmlns:xlink="http://www.w3.org/1999/xlink" width="49px" height="28px" xmlns="http://www.w3.org/2000/svg">
  <defs>
    <mask fill="white" id="clip79">
      <path d="M 46 23  L 3 23  C 1.32 23  0 21.68  0 20  L 0 3  C 0 1.32  1.32 0  3 0  L 46 0  C 47.68 0  49 1.32  49 3  L 49 20  C 49 21.68  47.68 23  46 23  Z M 24.5 28  L 20 23  L 29 23  L 24.5 28  Z " fill-rule="evenodd" />
    </mask>
  </defs>
  <g>
    <path d="M 46 23  L 3 23  C 1.32 23  0 21.68  0 20  L 0 3  C 0 1.32  1.32 0  3 0  L 46 0  C 47.68 0  49 1.32  49 3  L 49 20  C 49 21.68  47.68 23  46 23  Z M 24.5 28  L 20 23  L 29 23  L 24.5 28  Z " fill-rule="nonzero" fill="#2e2f2f" stroke="none" />
    <path d="M 46 23  L 3 23  C 1.32 23  0 21.68  0 20  L 0 3  C 0 1.32  1.32 0  3 0  L 46 0  C 47.68 0  49 1.32  49 3  L 49 20  C 49 21.68  47.68 23  46 23  Z " stroke-width="2" stroke="#2e2f2f" fill="none" mask="url(#clip79)" />
    <path d="M 24.5 28  L 20 23  L 29 23  L 24.5 28  Z " stroke-width="2" stroke="#2e2f2f" fill="none" mask="url(#clip79)" />
  </g>
</svg>