<?xml version="1.0" encoding="utf-8"?>
<svg version="1.1" xmlns:xlink="http://www.w3.org/1999/xlink" width="15px" height="15px" xmlns="http://www.w3.org/2000/svg">
  <g transform="matrix(1 0 0 1 -68 -106 )">
    <path d="M 7.47110224070844 14.9200322017979  C 5.4771065342815 14.9200322017979  3.60254260029518 14.1472225949282  2.19252314504227 12.7442305112035  C 0.782503689789347 11.3412384274789  0.00503153092714357 9.4734670602442  0.00503153092714357 7.48695156312894  C 0.00503153092714357 5.50043606601368  0.78201730846639 3.63373809204347  2.19203676371931 2.23022608345633  C 3.60205621897223 0.826714074869179  5.4762847175634 0.0544243928619342  7.47061585938548 0.0544243928619342  C 9.46494700120757 0.0544243928619342  11.3391754997987 0.827233999731651  12.7490272373541 2.23022608345633  C 14.1588789749094 3.633218167181  14.9365523950087 5.50097276264591  14.9365523950087 7.48629746410841  C 14.9365523950087 9.47162216557091  14.1597007916275 11.3400644035959  12.7490607808936 12.7435596404133  C 11.3384207701597 14.1470548772306  9.46514826244466 14.9200322017979  7.4711190124782 14.9200322017979  Z M 11.9967295048974 2.98639809472696  C 10.7888937340668 1.78490205286462  9.18086676506105 1.12048839393533  7.47110224070844 1.12048839393533  C 5.76085133503287 1.12048839393533  4.15349523681739 1.782872668724  2.94498859519657 2.98587816986448  C 1.73648195357574 4.18888367100496  1.07158191332349 5.78671340399839  1.07158191332349 7.4869683348987  C 1.07158191332349 9.18722326579901  1.73663289950356 10.7858915872803  2.94448544210385 11.9874211726821  C 4.15233798470415 13.188950758084  5.7598618006172 13.8528109486113  7.47061585938548 13.8528109486113  C 9.18136991815376 13.8528109486113  10.7882228632765 13.1905943915202  11.9967295048974 11.9874211726821  C 13.2052361465182 10.7842479538441  13.8701361867704 9.18656916677848  13.8696330336777 7.48631423587817  C 13.869129880585 5.78607607674762  13.2045652757279 4.18789413658929  11.9967295048974 2.98639809472696  Z M 11.2042466121025 6.95370991547028  L 8.00437743190662 6.95370991547028  L 8.00437743190662 3.75385750704414  C 7.99163088689118 3.45932845833892  7.74251979068831 3.23091372601637  7.44800751375285 3.24367704280156  C 7.17135717160875 3.25565208640816  6.94981886488662 3.47720716490004  6.93782704951026 3.75385750704414  L 6.93782704951026 6.95369314370052  L 3.7381423587817 6.95369314370052  C 3.44363008184624 6.96645646048571  3.21521534952368 7.21556755668858  3.22796189453911 7.51007983362404  C 3.23995370991547 7.78671340399839  3.4614920166376 8.00825171072051  3.73815913055146 8.02024352609687  L 6.93781027774051 8.02024352609687  L 6.93781027774051 11.220095934523  C 6.9505735945257 11.5146082114585  7.19968469072857 11.743022943781  7.49419696766403 11.7302763987656  C 7.77083053803837 11.7182845833892  7.9923688447605 11.4967295048974  8.00436066013686 11.2200791627533  L 8.00436066013686 8.02026029786663  L 11.204213068563 8.02026029786663  C 11.4987253454985 8.03304038642158  11.7478364417013 7.80462565409902  11.7605829867168 7.5100966053938  C 11.7733630752717 7.21556755668858  11.5449315711794 6.96645646048571  11.2504025224742 6.95370991547028  C 11.2350188980831 6.95304092666438  11.2196134647239 6.95304092666438  11.2042298403328 6.95370991547028  Z " fill-rule="nonzero" fill="#ffffff" stroke="none" transform="matrix(1 0 0 1 68 106 )" />
  </g>
</svg>