<?xml version="1.0" encoding="utf-8"?>
<svg version="1.1" xmlns:xlink="http://www.w3.org/1999/xlink" width="20px" height="20px" xmlns="http://www.w3.org/2000/svg">
  <defs>
    <linearGradient gradientUnits="userSpaceOnUse" x1="71" y1="569" x2="71" y2="589" id="LinearGradient7">
      <stop id="Stop8" stop-color="#33ffff" offset="0" />
      <stop id="Stop9" stop-color="#333366" offset="0.68" />
      <stop id="Stop10" stop-color="#333366" offset="1" />
    </linearGradient>
  </defs>
  <g transform="matrix(1 0 0 1 -61 -569 )">
    <path d="M 71 570  C 76.04 570  80 573.96  80 579  C 80 584.04  76.04 588  71 588  C 65.96 588  62 584.04  62 579  C 62 573.96  65.96 570  71 570  Z " fill-rule="nonzero" fill="url(#LinearGradient7)" stroke="none" />
    <path d="M 71 570  C 76.04 570  80 573.96  80 579  C 80 584.04  76.04 588  71 588  C 65.96 588  62 584.04  62 579  C 62 573.96  65.96 570  71 570  Z " stroke-width="2" stroke="#797979" fill="none" />
  </g>
</svg>