<?xml version="1.0" encoding="utf-8"?>
<svg version="1.1" xmlns:xlink="http://www.w3.org/1999/xlink" width="6px" height="6px" xmlns="http://www.w3.org/2000/svg">
  <g transform="matrix(1 0 0 1 -531 -478 )">
    <path d="M 5.92279411764706 0.246268656716419  C 5.94857187222122 0.23797547742366  5.97151340191562 0.222452850366752  5.9889705882353 0.201492537313434  C 5.98370487350325 0.129634975590368  5.92741847993303 0.0725084865937223  5.85661764705883 0.0671641791044776  L 4.75367647058824 0.0671641791044776  L 3 2.14925373134328  L 1.29044117647059 0.0783582089552239  L 0.1875 0.0783582089552226  C 0.113943062567922 0.0783573961390924  0.0546866323984691 0.138498250639434  0.0546866323984691 0.212685754348048  C 0.0546866323984691 0.21642224368304  0.0548402414664538 0.220157106094712  0.0551470588235307 0.223880597014925  C 0.0458723070125457 0.252989251489138  0.0458723070125444 0.284324181346685  0.0551470588235294 0.313432835820896  L 2.28308823529412 2.95522388059702  L 0.0772058823529412 5.66417910447761  C 0.0679311305419562 5.69328775895183  0.0679311305419562 5.72462268880937  0.0772058823529412 5.75373134328358  C 0.0772058823529412 5.83410113896792  0.141400348369849 5.89925373134329  0.220588235294118 5.89925373134329  L 1.32352941176471 5.89925373134328  L 3 3.87313432835821  L 4.70955882352941 5.94402985074627  L 5.8125 5.94402985074627  C 5.81616873370078 5.94434124746688  5.81984867166525 5.94449714920752  5.82353021262766 5.94449714920752  C 5.89662672363467 5.94449714920752  5.95588315380413 5.88435629470718  5.95588315380413 5.81016879099857  C 5.96515710475216 5.7805928380631  5.96515710475216 5.74925790820556  5.95588235294118 5.72014925373134  L 3.71691176470588 2.95522388059702  L 5.92279411764706 0.246268656716419  Z " fill-rule="nonzero" fill="#f9f9f9" stroke="none" transform="matrix(1 0 0 1 531 478 )" />
  </g>
</svg>