<?xml version="1.0" encoding="utf-8"?>
<svg version="1.1" xmlns:xlink="http://www.w3.org/1999/xlink" width="15px" height="15px" xmlns="http://www.w3.org/2000/svg">
  <g transform="matrix(1 0 0 1 -526 -473 )">
    <path d="M 14.9573863636364 7.5  C 14.9573863636364 3.38139923776752  11.6186007622325 0.0426136363636364  7.5 0.0426136363636364  C 3.38139923776752 0.0426136363636359  0.0426136363636359 3.38139923776752  0.0426136363636359 7.5  C 0.0426136363636359 11.6186007622325  3.38139923776752 14.9573863636364  7.5 14.9573863636364  C 11.6186007622325 14.9573863636364  14.9573863636364 11.6186007622325  14.9573863636364 7.5  Z M 7.5000366727737 13.7109375001086  C 4.08159804012075 13.7109375001086  1.31040599095552 10.9397454509434  1.31040599095552 7.52130681829046  C 1.31040599095552 4.1028681856375  4.08159804012074 1.33167613647228  7.5000366727737 1.33167613647228  C 10.9101574218666 1.33167613647228  13.677891883999 4.08989945543835  13.6896306818182 7.5  C 13.6896551303159 7.50710224646322  13.6896673545919 7.51420452974709  13.6896673545919 7.52130681829046  C 13.6896673545919 10.9397454509434  10.9184753054267 13.7109375001086  7.5000366727737 13.7109375001086  Z " fill-rule="nonzero" fill="#f9f9f9" stroke="none" transform="matrix(1 0 0 1 526 473 )" />
  </g>
</svg>