<?xml version="1.0" encoding="utf-8"?>
<svg version="1.1" xmlns:xlink="http://www.w3.org/1999/xlink" width="16px" height="16px" xmlns="http://www.w3.org/2000/svg">
  <g transform="matrix(1 0 0 1 -638 -473 )">
    <path d="M 15.998018625 7.96785816761364  C 15.9980003571429 3.58094158380682  12.421399 0.0246436612215909  8.00943260714286 0.0246436612215909  C 3.59744792857143 0.0246436612215909  0.0208283035714284 3.58094158380682  0.0208283035714284 7.96785816761364  C 0.0208283035714284 12.3547747514205  3.59744792857143 15.9110726740057  8.00943260714286 15.9110726740057  C 12.421399 15.9110726740057  15.998018625 12.3547747514205  15.998018625 7.96785816761364  Z M 14.3604363392857 10.635031640625  C 14.0133528035714 11.4509693359375  13.5162452678571 12.18396328125  12.8829466428571 12.8136817826705  C 12.24962975 13.4434002840909  11.512429 13.9376833451705  10.6918470714286 14.2827948153409  C 9.842850125 14.6398436434659  8.940348875 14.8208845348011  8.00943260714286 14.8208845348011  C 7.07851633928571 14.8208845348011  6.17601508928571 14.6398436434659  5.32701814285714 14.2827948153409  C 4.50641794642857 13.9376833451705  3.76923546428571 13.4434002840909  3.13591857142857 12.8136817826705  C 2.50258339285714 12.18396328125  2.00549414285714 11.4509693359375  1.65841060714286 10.6350498046875  C 1.29930323214285 9.79085852272727  1.11722782142857 8.89348513849432  1.11722782142857 7.96785816761364  C 1.11722782142857 7.04223119673295  1.29930323214285 6.14485779474432  1.65841060714286 5.30068469460227  C 2.00549414285714 4.48476516335227  2.50260167857143 3.75175305397727  3.13591857142857 3.12203455255682  C 3.76923546428571 2.49229786931818  4.50641794642857 1.99803299005682  5.32701814285714 1.65292151988636  C 6.17601508928571 1.29585452769886  7.07851633928571 1.11481363636364  8.00943260714286 1.11481363636364  C 8.940348875 1.11481363636364  9.842850125 1.29585452769886  10.6918470714286 1.65292151988636  C 11.512429 1.99803299005682  12.24962975 2.49229786931818  12.8829466428571 3.12201638849432  C 13.5162452678571 3.75173488991477  14.0133528035714 4.48474699928977  14.3604363392857 5.30066653053977  C 14.7195254464286 6.14483963068182  14.9016008571429 7.04221303267045  14.9016008571429 7.96784000355114  C 14.9016008571429 8.89346697443182  14.7195254464286 9.79084037642045  14.3604363392857 10.635031640625  Z " fill-rule="nonzero" fill="#f9f9f9" stroke="none" transform="matrix(1 0 0 1 638 473 )" />
  </g>
</svg>