<?xml version="1.0" encoding="utf-8"?>
<svg version="1.1" xmlns:xlink="http://www.w3.org/1999/xlink" width="9px" height="6px" xmlns="http://www.w3.org/2000/svg">
  <g transform="matrix(1 0 0 1 -642 -478 )">
    <path d="M 8.81880124436212 0.247869829963235  C 8.5834206185567 0.0240274701286764  8.20183810607281 0.0240274701286764  7.96649457554768 0.247852182904412  L 3.42993325346327 4.56201541819853  L 1.03280798969072 2.35727493681066  C 0.793551641027706 2.13720649701287  0.411987667123067 2.14329061351103  0.18059403189433 2.37080106272978  C -0.05081814191366 2.59832915900735  -0.0444389678640463 2.96117138671875  0.194817380798969 3.18123982651655  L 3.01799398961018 5.77783228400735  C 3.13491472495168 5.8853711339614  3.28597518725838 5.93899947725184  3.43696147712629 5.93899947725184  C 3.59130424653673 5.93899947725184  3.74557286163015 5.88293749425551  3.86314262846327 5.77111330422794  L 8.81878270578286 1.05841438993566  C 9.05414477488724 0.834589677159926  9.05414477488724 0.47169454273897  8.81880124436212 0.247869829963235  Z " fill-rule="nonzero" fill="#f9f9f9" stroke="none" transform="matrix(1 0 0 1 642 478 )" />
  </g>
</svg>