<?xml version="1.0" encoding="utf-8"?>
<svg version="1.1" xmlns:xlink="http://www.w3.org/1999/xlink" width="16px" height="16px" xmlns="http://www.w3.org/2000/svg">
  <g transform="matrix(1 0 0 1 -671 -235 )">
    <path d="M 4.51105182926829 15.1786809815951  C 4.00609756097561 15.6867331288344  3.34298780487805 15.9398006134969  2.68178353658537 15.9398006134969  C 2.01867378048781 15.9398006134969  1.35556402439024 15.6867331288344  0.852515243902439 15.1786809815951  C -0.157393292682927 14.1625766871166  -0.157393292682927 12.5118865030675  0.852515243902439 11.495782208589  L 7.08155487804878 5.22852760736196  C 7.27782012195122 5.03105828220859  7.59794207317073 5.03105828220859  7.79611280487805 5.22852760736196  C 7.99237804878049 5.42599693251534  7.99237804878049 5.74808282208589  7.79611280487805 5.94746932515337  L 1.56516768292683 12.2147239263804  C 0.94969512195122 12.833972392638  0.94969512195122 13.8424079754601  1.56516768292683 14.4616564417178  C 2.18064024390244 15.0809049079755  3.18292682926829 15.0809049079755  3.7983993902439 14.4616564417178  L 14.4405487804878 3.75421779141104  C 15.0560213414634 3.13496932515337  15.0560213414634 2.12653374233129  14.4405487804878 1.50728527607362  C 13.8250762195122 0.888036809815952  12.8227896341463 0.888036809815951  12.2073170731707 1.50728527607362  L 10.6028963414634 3.11963190184049  C 10.406631097561 3.31710122699387  10.0865091463415 3.31710122699387  9.88833841463415 3.11963190184049  C 9.69207317073171 2.92216257668712  9.69207317073171 2.60007668711656  9.88833841463415 2.40069018404908  L 11.4908536585366 0.788343558282209  C 12.500762195122 -0.227760736196319  14.141387195122 -0.227760736196319  15.1512957317073 0.788343558282209  C 16.1612042682927 1.80444785276074  16.1612042682927 3.45513803680982  15.1512957317073 4.47124233128834  L 4.51105182926829 15.1786809815951  Z " fill-rule="nonzero" fill="#f9f9f9" stroke="none" transform="matrix(1 0 0 1 671 235 )" />
  </g>
</svg>