<?xml version="1.0" encoding="utf-8"?>
<svg version="1.1" xmlns:xlink="http://www.w3.org/1999/xlink" width="29px" height="28px" xmlns="http://www.w3.org/2000/svg">
  <g transform="matrix(1 0 0 1 -23 -23 )">
    <path d="M 22.1849994788322 26.7607342217752  L 22.1849994788322 24.6699924566256  C 22.2557423472692 20.0591965163456  19.4573932271447 16.0983659193862  15.4595875759695 14.4097431108843  C 17.5532514386691 13.0130742638676  18.933010286935 10.630919952916  18.933010286935 7.92963942670355  C 18.933010286935 3.63280462660297  15.4564054905582 0.129009806386724  11.1396212017238 0.129009806386724  C 6.83732276620757 0.129009806386724  3.34623211651261 3.6183857178778  3.34623211651261 7.92963942670355  C 3.34623211651261 10.638252771732  4.72422822653669 13.0167648036143  6.81564221080606 14.4108199890486  C 2.81479254218271 16.1000494163548  0 20.0601763771921  0 24.6699924566256  L 0 26.7607342217752  C 0 27.3807472969575  0.507004866138274 27.8709901936133  1.1154107055042 27.8709901936133  C 1.73830239818837 27.8709901936133  2.23082141100841 27.3663283882323  2.3199999454988 26.7607342217752  L 2.3199999454988 24.6699924566256  C 2.23082141100841 19.7531445813427  6.24340278015989 15.7591068644707  11.154107055042 15.7591068644707  C 16.0648113299242 15.7591068644707  20.0629068457574 19.7531445813427  20.0099995299271 24.6699924566256  L 20.0099995299271 26.7607342217752  C 20.0629068457574 27.3807472969575  20.5699117118957 27.8709901936133  21.1783175512616 27.8709901936133  C 21.7867233906275 27.8709901936133  22.2937282567658 27.3663283882323  22.1849994788322 26.7607342217752  Z M 25.7703330531425 12.6734603972844  C 25.446261007316 13.1350754678273  25.0553784548697 13.5387696592823  24.6143106846341 13.8762693793214  C 27.236567577377 15.3648168758988  29.0004578952474 18.1737033291957  28.999999318735 21.3969001760121  L 28.999999318735 22.9685612270556  C 29.0006783431093 23.5885743022379  28.493673476971 24.0788171988936  27.885267637605 24.0788171988936  C 27.2768617982391 24.0788171988936  26.7698569321009 23.5885743022379  26.6799993732362 22.9685612270556  L 26.6799993732362 21.3969001760121  C 26.7698569321009 17.8498486296203  23.8871721217718 14.9804857933115  20.3381380588039 14.9660668845864  C 19.729732219438 14.9660668845864  19.2227273532997 14.4758239879306  19.2227273532997 13.8558109127483  C 19.2227273532997 13.235797837566  19.7152463661197 12.7455549409102  20.3381380588039 12.7455549409102  C 20.7452897427359 12.7467793218238  21.1457565657832 12.7757632239044  21.5377376119528 12.8307056650406  C 21.6161937008044 12.7980369596492  21.6995422267489 12.7740460010134  21.7867233906275 12.7599738496354  C 23.6119409087253 12.4283389489565  24.8287525874572 10.683650993211  24.4955779611377 8.8524495851144  C 24.3362335746371 7.98731506160422  23.8437145618171 7.22311289917023  23.1339077492235 6.71845109378929  C 22.4096150833117 6.21378928840835  21.511492177581 6.01192456625597  20.6423409784869 6.17053256223284  C 20.0339351391209 6.24262710585869  19.4689868597097 5.8100598441036  19.3965575931185 5.20446567764647  C 19.3241283265273 4.64212823736485  19.7007605128015 4.12304752325874  20.2512229388945 3.99327734473221  C 21.7142941240364 3.73373698767915  23.2063370158147 4.06537188835806  24.4231486945466 4.91608750314307  C 26.9436871719197 6.68961327633895  27.5520930112856 10.1645702791048  25.7703330531425 12.6734603972844  Z M 11.1396212017238 2.34952175006286  C 14.2106221051899 2.34952175006286  16.7166747292448 4.84399295951722  16.7166747292448 7.91522051797838  C 16.7166747292448 10.9864480764395  14.2106221051899 13.4953381946191  11.1396212017238 13.4953381946191  C 8.06862029825767 13.4953381946191  5.57705352752101 11.0008669851647  5.57705352752101 7.92963942670355  C 5.57705352752101 4.85841186824239  8.06862029825767 2.34952175006286  11.1396212017238 2.34952175006286  Z " fill-rule="nonzero" fill="#13227a" stroke="none" transform="matrix(1 0 0 1 23 23 )" />
  </g>
</svg>