<?xml version="1.0" standalone="no"?><!DOCTYPE svg PUBLIC "-//W3C//DTD SVG 1.1//EN" "http://www.w3.org/Graphics/SVG/1.1/DTD/svg11.dtd"><svg t="1597281035091" class="icon" viewBox="0 0 1024 1024" version="1.1" xmlns="http://www.w3.org/2000/svg" p-id="3594" xmlns:xlink="http://www.w3.org/1999/xlink" width="200" height="200"><defs><style type="text/css"></style></defs><path d="M595.1 264m-171.9 0a171.9 171.9 0 1 0 343.8 0 171.9 171.9 0 1 0-343.8 0Z" fill="#A5E8D0" p-id="3595"></path><path d="M283.5 853.9H209c-35.2 0-63.9-28.8-63.9-64.2V419.9c0-35.4 28.6-64.2 63.9-64.2h74.5c35.2 0 63.9 28.8 63.9 64.2v369.8c0 35.4-28.6 64.2-63.9 64.2z m-67.4-71.3h60.3V427h-60.3v355.6zM809.1 853.9H451.4c-37 0-67.1-30.1-67.1-67.1V405.4c0-14.7 4.9-29.1 13.8-40.8l107.2-166.5c20.3-26.5 56.4-34 85.6-17.9l41.8 23c25.9 14.3 39.3 43.4 33.3 72.4l-16.7 80.1h221.1c19.8 0 38.4 8.7 51.2 23.8 12.8 15.1 18.2 34.9 14.9 54.4L875.2 798c-5.5 32.4-33.3 55.9-66.1 55.9zM458.4 780h344.8l59.1-350.2H640.8c-20.3 0-39.2-9-52-24.7-12.8-15.7-17.8-36.1-13.6-56l17.4-83.5-32.1-17.7-102.1 159.9V780z" fill="#2A2A2A" p-id="3596"></path></svg>