<?xml version="1.0" encoding="utf-8"?>
<svg version="1.1" xmlns:xlink="http://www.w3.org/1999/xlink" width="53px" height="53px" xmlns="http://www.w3.org/2000/svg">
  <defs>
    <filter x="145px" y="557px" width="53px" height="53px" filterUnits="userSpaceOnUse" id="filter75">
      <feOffset dx="0" dy="-3" in="SourceAlpha" result="shadowOffsetInner" />
      <feGaussianBlur stdDeviation="1.5" in="shadowOffsetInner" result="shadowGaussian" />
      <feComposite in2="shadowGaussian" operator="atop" in="SourceAlpha" result="shadowComposite" />
      <feColorMatrix type="matrix" values="0 0 0 0 0  0 0 0 0 0  0 0 0 0 0  0 0 0 0.349019607843137 0  " in="shadowComposite" />
    </filter>
    <g id="widget76">
      <path d="M 171.5 564  C 184.1 564  194 573.9  194 586.5  C 194 599.1  184.1 609  171.5 609  C 158.9 609  149 599.1  149 586.5  C 149 573.9  158.9 564  171.5 564  Z " fill-rule="nonzero" fill="#309bd5" stroke="none" />
      <path d="M 171.5 564  C 184.1 564  194 573.9  194 586.5  C 194 599.1  184.1 609  171.5 609  C 158.9 609  149 599.1  149 586.5  C 149 573.9  158.9 564  171.5 564  Z " stroke-width="2" stroke="#ffffff" fill="none" />
    </g>
  </defs>
  <g transform="matrix(1 0 0 1 -145 -557 )">
    <use xlink:href="#widget76" filter="url(#filter75)" />
    <use xlink:href="#widget76" />
  </g>
</svg>